# xmcd
#
# Track frame offsets: 
#        150
#        14068
#        29865
#        43572
#        57793
#        70134
#        83013
#        98548
#        112228
#        125132
#        140702
#        155102
#        171677
#        183296
#
# Disc length: 2650 seconds
#
# Revision: 0
# Processed by: cddbd v1.5.2PL0 Copyright (c) Steve Scherf et al.
# Submitted via: ExactAudioCopyFreeDBPlugin 1.0
#
DISCID=d30a580e
DTITLE=Jess and the Bandits - Smoke and Mirrors
DYEAR=2017
DGENRE=americana
TTITLE0=I'm Not Going Home
TTITLE1=Smoke and Mirrors
TTITLE2=World Still Round
TTITLE3=White Lies
TTITLE4=Kings of Summer
TTITLE5=Kiss Me Quiet
TTITLE6=Gone Girl
TTITLE7=Sister
TTITLE8=Start a War
TTITLE9=The Bullet
TTITLE10=Already Written
TTITLE11=Game Changer
TTITLE12=Line of Fire
TTITLE13=Fault Lines
EXTD=
EXTT0=
EXTT1=
EXTT2=
EXTT3=
EXTT4=
EXTT5=
EXTT6=
EXTT7=
EXTT8=
EXTT9=
EXTT10=
EXTT11=
EXTT12=
EXTT13=
PLAYORDER=
